<?xml version="1.0" encoding="UTF-8"?>
<svg width="29px" height="14px" viewBox="0 0 29 14" version="1.1" xmlns="http://www.w3.org/2000/svg" xmlns:xlink="http://www.w3.org/1999/xlink">
    <!-- Generator: Sketch 51.3 (57544) - http://www.bohemiancoding.com/sketch -->
    <title>beat</title>
    <desc>Created with Sketch.</desc>
    <defs></defs>
    <g id="导航栏" stroke="none" stroke-width="1" fill="none" fill-rule="evenodd">
        <g id="导航栏—中文版" transform="translate(-266.000000, -575.000000)">
            <g id="Group-3" transform="translate(0.000000, 118.000000)">
                <g id="核心与技术">
                    <g id="下拉" transform="translate(0.000000, 68.000000)">
                        <g id="人脸识别" transform="translate(185.000000, 20.000000)">
                            <g id="beat" transform="translate(81.000000, 369.000000)">
                                <path d="M1,0 L28,-1.11022302e-16 C28.5522847,-2.12475365e-16 29,0.44771525 29,1 L29,13 C29,13.5522847 28.5522847,14 28,14 L1,14 C0.44771525,14 -7.27666672e-16,13.5522847 -1.77635684e-15,13 L-1.77635684e-15,1 C-1.84399221e-15,0.44771525 0.44771525,1.01453063e-16 1,0 Z" id="Rectangle-49" fill="#5BB1FF"></path>
                                <path d="M4,3 L5.22356637,3 L5.22356637,6.04043127 C5.67435399,5.42587601 6.23247198,5.12398922 6.87645428,5.12398922 C7.67069912,5.12398922 8.29321535,5.41509434 8.754736,5.99730458 C9.1733245,6.53638814 9.38798526,7.21563342 9.38798526,8.03504043 C9.38798526,8.88679245 9.1733245,9.58760108 8.74400296,10.1266846 C8.27174927,10.7088949 7.62776697,11 6.81205605,11 C6.08220944,11 5.52409145,10.7520216 5.13770207,10.2560647 L5.13770207,10.8490566 L4,10.8490566 L4,3 Z M6.58666225,6.11590296 C6.18953983,6.11590296 5.86754868,6.27762803 5.60995576,6.60107817 C5.32016372,6.94609164 5.18063422,7.42048518 5.18063422,8.01347709 L5.18063422,8.09973046 C5.18063422,8.63881402 5.2879646,9.0916442 5.52409145,9.43665768 C5.78168437,9.81401617 6.14660767,10.0080863 6.6295944,10.0080863 C7.16624632,10.0080863 7.56336874,9.81401617 7.82096166,9.42587601 C8.02488939,9.10242588 8.13221977,8.63881402 8.13221977,8.03504043 C8.13221977,7.43126685 8.01415635,6.97843666 7.79949558,6.66576819 C7.54190266,6.29919137 7.13404721,6.11590296 6.58666225,6.11590296 Z M12.8102792,5.12398922 C13.7225874,5.12398922 14.4202349,5.42587601 14.9032217,6.05121294 C15.3432762,6.61185984 15.56867,7.39892183 15.56867,8.40161725 L11.4149842,8.40161725 C11.4579163,8.91913747 11.5974458,9.3180593 11.8335727,9.58760108 C12.0696995,9.85714286 12.4131568,9.99730458 12.8532113,9.99730458 C13.2288677,9.99730458 13.5293927,9.91105121 13.7655196,9.73854447 C13.9479812,9.59838275 14.1089768,9.37196765 14.2592394,9.05929919 L15.4828057,9.05929919 C15.3540093,9.57681941 15.0964164,10.0188679 14.710027,10.3638814 C14.2163072,10.7843666 13.604524,11 12.8639444,11 C12.0375004,11 11.3827851,10.7412399 10.8997983,10.2345013 C10.3846125,9.70619946 10.1270196,8.98382749 10.1270196,8.05660377 C10.1270196,7.22641509 10.3631464,6.53638814 10.8568662,5.97574124 C11.3291199,5.40431267 11.9838352,5.12398922 12.8102792,5.12398922 Z M12.8424783,6.12668464 C12.4346228,6.12668464 12.1233647,6.23450135 11.8872379,6.47169811 C11.6618441,6.69811321 11.5115815,7.03234501 11.4364503,7.47439353 L14.2914385,7.47439353 C14.1841081,6.56873315 13.7011214,6.12668464 12.8424783,6.12668464 Z M18.0663354,3.47439353 L18.0663354,5.27493261 L19.3006348,5.27493261 L19.3006348,6.2884097 L18.0663354,6.2884097 L18.0663354,9.43665768 C18.0663354,9.56603774 18.0878014,9.66307278 18.1521997,9.73854447 C18.2165979,9.8032345 18.3024622,9.83557951 18.4312587,9.83557951 L19.1611053,9.83557951 L19.1611053,10.8490566 L18.2273309,10.8490566 C17.7443442,10.8490566 17.3901539,10.7196765 17.1647601,10.4609164 C16.9500994,10.2237197 16.842769,9.88948787 16.842769,9.43665768 L16.842769,6.2884097 L15.8445964,6.2884097 L15.8445964,5.27493261 L16.842769,5.27493261 L16.842769,3.98113208 L18.0663354,3.47439353 Z M22.6709307,5.12398922 C23.4866416,5.12398922 24.0984248,5.32884097 24.4848142,5.73854447 C24.8282714,6.09433962 25,6.61185984 25,7.29110512 L25,10.8490566 L23.8622979,10.8490566 L23.8622979,10.115903 C23.6476372,10.3962264 23.3793112,10.6010782 23.0680531,10.7520216 C22.7138628,10.9137466 22.2952743,11 21.8122876,11 C21.2327035,11 20.7819159,10.8490566 20.4491917,10.5579515 C20.1057345,10.2560647 19.9340059,9.8787062 19.9340059,9.41509434 C19.9340059,8.78975741 20.1701327,8.30458221 20.6638525,7.9703504 C21.1146401,7.64690027 21.7478894,7.47439353 22.5636003,7.45283019 L23.7764336,7.42048518 L23.7764336,7.20485175 C23.7764336,6.47169811 23.3793112,6.11590296 22.5850664,6.11590296 C22.2416091,6.11590296 21.9732832,6.16981132 21.7693554,6.29919137 C21.5332286,6.4393531 21.372233,6.65498652 21.3078348,6.94609164 L20.0950015,6.8490566 C20.2130649,6.23450135 20.51359,5.78167116 20.9965767,5.50134771 C21.4044321,5.2425876 21.9625501,5.12398922 22.6709307,5.12398922 Z M23.7764336,8.30458221 L22.6494646,8.33692722 C21.6727581,8.35849057 21.1897714,8.70350404 21.1897714,9.37196765 C21.1897714,9.56603774 21.2649026,9.7277628 21.4366313,9.85714286 C21.6083599,9.98652291 21.8230206,10.0619946 22.0913466,10.0619946 C22.5636003,10.0619946 22.9607227,9.92183288 23.2827139,9.65229111 C23.604705,9.37196765 23.7764336,9.01617251 23.7764336,8.58490566 L23.7764336,8.30458221 Z" id="beta" fill="#FFFFFF"></path>
                            </g>
                        </g>
                    </g>
                </g>
            </g>
        </g>
    </g>
</svg>