<svg xmlns="http://www.w3.org/2000/svg" viewBox="0 0 2030 473"><defs><style>.cls-1{fill:#fff;}</style></defs><title>资源 3</title><g id="图层_2" data-name="图层 2"><g id="图层_1-2" data-name="图层 1"><path class="cls-1" d="M0,473H1120V0H0ZM10,10H1110V463H10Z"/><path class="cls-1" d="M1782.58,134.51V92.92H1743V42.19h-46.32V92.92h-55.81v46.76h92.61c-2.64,44.66-64.63,98.81-90.5,105.34V299.3a151.91,151.91,0,0,0,55.27-24V430.85h46.33v-179l38.52,37V228.63l-22.32-22.08C1775.06,182.29,1782.58,157.47,1782.58,134.51Z"/><path class="cls-1" d="M1986.87,339v30c0,11.22-1.53,15.45-17.81,15.45h-11.49c-15.35,0-17-3.2-17-15.84V267.93H1922c2.83-14.73,4.35-31.52,4.75-52.18.39-13.7,1.18-82.71,1.18-82.71h-47.09v80.2c0,73.79-24.65,119-91.92,162.74v55l2.8-1.73c50.56-31.23,82.51-59.34,103-91.14v39.66c0,35.45,15.68,52.68,47.91,52.68h33.63c38.74,0,53.83-14.77,53.83-52.68V339Z"/><path class="cls-1" d="M1353.13,309.26V72.67H1220V362h77C1335.74,362,1353.13,347.17,1353.13,309.26Zm-45.43-8.74c0,11.6-3.84,13.28-7.49,14.44a40.41,40.41,0,0,1-10.32,1h-25.21V240.22h43Zm0-105.48h-43v-77.2h43Z"/><path class="cls-1" d="M1845.08,101.73h105.78c16.28,0,17.81,4.23,17.81,15.45V284.72h45.43V108.45c0-37.91-17.4-52.69-56.13-52.69h-35.75l-123,.08V285.38h45.91Z"/><path class="cls-1" d="M1531.43,42h-46.31V92.72H1385V305.45c-.11,63.05-35.25,73.72-54.26,79.73V431s102-9.24,101.36-129.5v-162H1610.2V92.72h-78.77Z"/><polygon class="cls-1" points="119.14 137.89 242 137.89 242 87 59 87 59 382 119.14 382 119.14 258.51 219.75 258.51 219.75 207.21 119.14 207.21 119.14 137.89"/><path class="cls-1" d="M722.56,165c-28.83,0-57.48,10.48-76.52,32.84-18.5,21.73-26,51.49-26,79.61,0,34,11.82,71.71,41.57,91.16C682.1,382,706.93,387,731.18,387q40.2,0,72.22-12.3l-11.51-44.31A162.93,162.93,0,0,1,764.21,338c-22.41,4.09-50,5.44-69.54-8.41q-15.61-11.1-17.23-35.72h136.2c6.07-33.44,1.06-73.47-22.36-99.7C773.79,174.6,748.5,165,722.56,165Zm38.36,88H678c2.44-25,17.61-44.2,43.92-44C748.39,209.17,762.17,235.37,760.92,253Z"/><polygon class="cls-1" points="1017.59 87 984.4 87 984.4 131.04 940 131.04 940 163.95 984.4 163.95 984.4 208 1017.59 208 1017.59 163.95 1062 163.95 1062 131.04 1017.59 131.04 1017.59 87"/><polygon class="cls-1" points="877.59 87 844.4 87 844.4 131.04 800 131.04 800 163.95 844.4 163.95 844.4 208 877.59 208 877.59 163.95 922 163.95 922 131.04 877.59 131.04 877.59 87"/><path class="cls-1" d="M393.93,185.49Q369.89,165,327.11,165a219.47,219.47,0,0,0-69.9,11.88l11.52,42.65q25.09-8.61,47.29-8.61c10.77,0,23.41.21,32.89,6,9,5.44,12.32,14.61,12.32,30.55,0,0-18.36-1.24-26.31-1.24-21.22,0-44.27,3.94-62.7,15C252.8,272.78,242,293,242,315.48c0,33.66,23.37,60.76,56.13,67.68,32.32,6.81,67.53,3.9,99.48-3.55,1.79-.42,20.39-4.24,20.39-5.47v-123Q418,206,393.93,185.49ZM360,338.94c-3,.57-6.52,1.17-10.6,1.85-11.9,2-26.83,1.86-38.12-2.86-10-4.17-15.28-14.44-15.28-24.67q0-15.94,11.62-23.06c9.47-5.84,21-7.39,31.93-7.18,1.89,0,20.34.59,20.45,2.06Z"/><path class="cls-1" d="M516.69,324.31q-13.86-15.1-13.88-48.2c0-31.93,15.09-63.73,51.06-63.73a133.25,133.25,0,0,1,42.48,7L606.55,176c-31.83-12.12-73.11-16.28-105-2C461.65,191.84,444,234.41,444,276.11c0,28,7.13,57.35,25.93,78.83,32.81,37.5,95.73,38.59,139.07,21.24l-11.42-44.51C572.91,340.35,536.59,345.93,516.69,324.31Z"/></g></g></svg>