<?xml version="1.0" encoding="UTF-8"?>
<svg width="300px" height="121px" viewBox="0 0 300 121" version="1.1" xmlns="http://www.w3.org/2000/svg" xmlns:xlink="http://www.w3.org/1999/xlink">
    <!-- Generator: Sketch 52.6 (67491) - http://www.bohemiancoding.com/sketch -->
    <title>face++英文 copy 2@2x</title>
    <desc>Created with Sketch.</desc>
    <g id="Page-1" stroke="none" stroke-width="1" fill="none" fill-rule="evenodd">
        <g id="Artboard" fill="#FFFFFF">
            <g id="Group-3">
                <g id="Group" transform="translate(3.000000, 3.000000)">
                    <path d="M161.334033,1.42108547e-14 L1.13686838e-13,1.42108547e-14 L1.13686838e-13,68.2496863 L161.334033,68.2496863 L161.334033,1.42108547e-14 Z M159.893551,66.8067754 L1.44048244,66.8067754 L1.44048244,1.44291092 L159.893551,1.44291092 L159.893551,66.8067754 Z" id="Shape" fill-rule="nonzero"></path>
                    <path d="M186.193879,52.2333752 L186.830572,52.2333752 C192.409561,52.2333752 194.91456,50.1007528 194.91456,44.6306775 L194.91456,10.4856336 L175.738858,10.4856336 L175.738858,52.2333752 L186.193879,52.2333752 Z M188.371889,43.3695734 C188.371889,45.0433501 187.818743,45.2857591 187.292967,45.4531368 C186.805683,45.5649763 186.306045,45.6134724 185.806389,45.5974279 L182.174933,45.5974279 L182.174933,34.661606 L188.369008,34.661606 L188.371889,43.3695734 Z M182.177814,17.0104768 L188.371889,17.0104768 L188.371889,28.1367629 L182.177814,28.1367629 L182.177814,17.0104768 Z" id="Shape" fill-rule="nonzero"></path>
                    <path d="M265.780534,14.6787327 L281.017957,14.6787327 C283.363063,14.6787327 283.583456,15.2890841 283.583456,16.9080301 L283.583456,41.0825596 L290.127568,41.0825596 L290.127568,15.6483689 C290.127568,10.1782936 287.621129,8.04567127 282.04214,8.04567127 L276.892415,8.04567127 L259.174481,8.05721455 L259.174481,41.1777917 L265.787736,41.1777917 L265.780534,14.6787327 Z" id="Shape" fill-rule="nonzero"></path>
                    <path d="M256.777519,19.4085947 L256.777519,13.4075282 L251.076089,13.4075282 L251.076089,6.08764115 L244.403775,6.08764115 L244.403775,13.4075282 L236.364442,13.4075282 L236.364442,20.1545797 L249.70475,20.1545797 C249.324463,26.5986198 240.394912,34.4119824 236.668384,35.3542033 L236.668384,43.1863237 C239.526453,42.5760827 242.233547,41.3985941 244.62993,39.7233375 L244.62993,62.1678168 L251.303685,62.1678168 L251.303685,36.3397114 L256.852424,41.6784818 L256.852424,32.9892723 L253.637267,29.803325 C255.694276,26.3028231 256.777519,22.7215182 256.777519,19.4085947 Z" id="Shape" fill-rule="nonzero"></path>
                    <path d="M286.205134,48.9146801 L286.205134,53.2434128 C286.205134,54.8623588 285.984741,55.4727102 283.639635,55.4727102 L281.984521,55.4727102 C279.77338,55.4727102 279.535701,55.0109787 279.535701,53.1871393 L279.535701,38.6599122 L276.860725,38.6599122 C277.268381,36.5345044 277.487335,34.111857 277.544954,31.130803 C277.601133,29.1540151 277.714931,19.1964868 277.714931,19.1964868 L270.931699,19.1964868 L270.931699,30.7671895 C270.931699,41.415872 267.38091,47.9378294 257.690785,54.2505646 L257.690785,62.1865747 L258.09412,61.9369511 C265.377199,57.4307403 269.97954,53.3747177 272.931089,48.786261 L272.931089,54.5088457 C272.931089,59.6239649 275.189765,62.1101004 279.83244,62.1101004 L284.678223,62.1101004 C290.257212,62.1101004 292.4309,59.978921 292.4309,54.5088457 L292.4309,48.9146801 L286.205134,48.9146801 Z" id="Shape" fill-rule="nonzero"></path>
                    <path d="M220.599802,6.06022585 L213.928928,6.06022585 L213.928928,13.37867 L199.506818,13.37867 L199.506818,44.0737139 C199.490973,53.1712673 194.429117,54.7108532 191.69076,55.5780427 L191.69076,62.1894605 C191.69076,62.1894605 206.383681,60.8562108 206.29149,43.5037641 L206.29149,20.1286073 L231.946482,20.1286073 L231.946482,13.37867 L220.599802,13.37867 L220.599802,6.06022585 Z" id="Shape" fill-rule="nonzero"></path>
                    <path d="M45.5192451,30.433877 C47.0706447,30.433877 48.8914145,30.4641782 50.2569918,31.2996236 C51.553426,32.0845671 52.0316662,33.4077164 52.0316662,35.7077164 C52.0316662,35.7077164 49.3869404,35.5287955 48.2417569,35.5287955 C45.1850532,35.5287955 41.8647411,36.0973024 39.209932,37.6931619 C36.4153961,39.359724 34.859675,42.2772898 34.859675,45.5209536 C34.859675,50.3777917 38.2260825,54.2880803 42.945103,55.2865747 C47.6007422,56.269197 52.6726809,55.8493099 57.2750223,54.7743413 C57.5328686,54.713739 60.212166,54.1625471 60.212166,53.985069 L60.212166,36.2372647 C60.212166,31.8979506 59.0564189,28.7418235 56.7449247,26.7688833 C54.4334306,24.7959431 51.224996,23.8089921 47.1196211,23.8080301 C43.6927296,23.8289928 40.2920378,24.4079389 37.0506488,25.5222083 L38.7100846,31.6762233 C41.1195316,30.8479925 43.3892517,30.433877 45.5192451,30.433877 Z M51.8573678,48.9031368 C51.4252231,48.9853827 50.9181733,49.0719573 50.3304564,49.1700753 C48.6162823,49.4586575 46.4656421,49.4384567 44.8393374,48.7574028 C43.3988549,48.1557089 42.6382802,46.6738394 42.6382802,45.1977415 C42.6382802,43.6644082 43.1962271,42.5552907 44.3121208,41.870389 C45.6762577,41.027729 47.3371339,40.8040778 48.9115812,40.8343789 C49.1838324,40.8343789 51.8415225,40.9195107 51.8573678,41.1316186 L51.8573678,48.9031368 Z" id="Shape" fill-rule="nonzero"></path>
                    <path d="M87.7253806,54.2794228 L86.0803496,47.8570263 C82.5266794,49.109473 77.2934067,49.9146173 74.4282872,46.7950439 C73.0972814,45.3425136 72.4308182,43.0242367 72.4288975,39.8402133 C72.4288975,35.2329987 74.6025855,30.644542 79.7840009,30.644542 C81.8648969,30.646742 83.9315897,30.9878728 85.9031703,31.6545797 L87.3724624,25.3952321 C82.7874068,23.6464241 76.8410953,23.0461731 72.2473968,25.1066499 C66.4998718,27.680803 63.9574203,33.8232748 63.9574203,39.8402133 C63.9574203,43.8803639 64.9844843,48.1153074 67.6925913,51.2146801 C72.4188142,56.625596 81.4823297,56.7828733 87.7253806,54.2794228 Z" id="Shape" fill-rule="nonzero"></path>
                    <polygon id="Shape" fill-rule="nonzero" points="17.1619078 37.3006901 31.6546016 37.3006901 31.6546016 29.8985571 17.1619078 29.8985571 17.1619078 19.8962986 34.859675 19.8962986 34.859675 12.553325 8.49884639 12.553325 8.49884639 55.119197 17.1619078 55.119197"></polygon>
                    <path d="M95.2979968,53.1871393 C98.2553072,55.119197 101.832025,55.8406524 105.325195,55.8406524 C109.185688,55.8406524 112.653409,55.249059 115.728359,54.065872 L114.070364,47.6723338 C112.776121,48.1551525 111.441858,48.5225968 110.083109,48.770389 C106.854987,49.3605395 102.880696,49.5553325 100.065994,47.5569009 C98.5669316,46.4891468 97.7396145,44.7711209 97.5840424,42.4028231 L117.203413,42.4028231 C118.077786,37.577729 117.356104,31.8017566 113.982494,28.0170013 C111.463091,25.1932246 107.820111,23.8080301 104.083499,23.8080301 C99.9305883,23.8080301 95.8036061,25.3202008 93.0609275,28.5465496 C90.396035,31.681995 89.3156732,35.9760979 89.3156732,40.0335634 C89.3099113,44.9365747 91.0125615,50.3806775 95.2979968,53.1871393 Z M103.991308,30.1568381 C107.804265,30.1813676 109.78925,33.9617942 109.60919,36.5056462 L97.6647094,36.5056462 C98.0161871,32.8983689 100.201399,30.1279799 103.991308,30.1568381 Z" id="Shape" fill-rule="nonzero"></path>
                    <polygon id="Shape" fill-rule="nonzero" points="141.801091 30.0125471 146.582053 30.0125471 146.582053 23.6565245 152.979235 23.6565245 152.979235 18.9079046 146.582053 18.9079046 146.582053 12.553325 141.801091 12.553325 141.801091 18.9079046 135.405349 18.9079046 135.405349 23.6565245 141.801091 23.6565245"></polygon>
                    <polygon id="Shape" fill-rule="nonzero" points="121.634337 30.0125471 126.415298 30.0125471 126.415298 23.6565245 132.812481 23.6565245 132.812481 18.9079046 126.415298 18.9079046 126.415298 12.553325 121.634337 12.553325 121.634337 18.9079046 115.238595 18.9079046 115.238595 23.6565245 121.634337 23.6565245"></polygon>
                    <path d="M10.1332239,97.2749751 L19.7757697,97.2749751 L15.5330496,86.3073471 C15.4473376,85.8772419 15.2759163,85.2751036 15.0187804,84.5009142 C14.7616446,85.2751036 14.5473679,85.8772419 14.3759441,86.3073471 L10.1332239,97.2749751 Z M24.0184899,107.597448 L20.8043079,99.7265625 L9.10468566,99.7265625 L6.01907099,107.597448 L2.93345632,107.597448 L13.3474058,81.791265 L16.4330205,81.791265 L27.1041046,107.597448 L24.0184899,107.597448 Z M30.8230049,107.597448 L30.8230049,81.791265 L33.651485,81.791265 L33.651485,107.597448 L30.8230049,107.597448 Z M68.2169814,83.9847906 C62.5599928,84.5009168 59.4315537,88.1567562 58.8315701,94.9524186 C59.1744179,101.576039 62.2171463,105.145858 67.9598468,105.661985 C73.9596831,105.317901 77.1309776,101.748081 77.4738254,94.9524186 C76.9595537,88.1567562 73.8739699,84.5009168 68.2169814,83.9847906 Z M68.0884141,107.984541 C60.2886269,107.554436 56.2173705,103.296458 55.8745227,95.2104804 C56.2173705,86.4363341 60.4171929,81.8342774 68.4741159,81.4041722 C76.1024792,81.9202985 80.1737356,86.4363354 80.6880073,94.9524186 C80.3451595,103.29646 76.1453371,107.640457 68.0884141,107.984541 Z M87.4925223,96.3717586 L87.4925223,99.3394697 C87.5782343,103.640522 89.3781582,105.834026 92.892348,105.920047 C96.4065378,105.834026 98.2064617,103.339453 98.2921737,98.4362533 C98.2064617,93.4470329 96.2779718,90.8664404 92.5066462,90.6943983 C89.4210161,91.0384824 87.7496582,92.930917 87.4925223,96.3717586 Z M87.4925223,114.048994 L84.7926095,114.048994 L84.7926095,88.7589345 L87.4925223,88.7589345 L87.4925223,91.5976147 C88.9496254,89.4470886 90.7924046,88.3718418 93.0209153,88.3718418 C98.0779202,88.6299049 100.734951,91.9846752 100.992087,98.4362533 C100.906375,104.543747 98.4636207,107.683468 93.6637517,107.85551 C90.6638335,107.941531 88.6067776,106.909294 87.4925223,104.758768 L87.4925223,114.048994 Z M107.153765,96.7588514 L118.339118,96.7588514 C118.167694,92.9739256 116.324915,90.9954713 112.810725,90.8234292 C109.296536,91.1675134 107.410901,93.1459676 107.153765,96.7588514 Z M118.339118,101.662026 L121.167598,102.436212 C120.139055,106.221138 117.396314,108.070562 112.939293,107.984541 C107.196592,107.726478 104.239574,104.543747 104.06815,98.4362533 C104.325286,91.9846752 107.239449,88.6299049 112.810725,88.3718418 C118.29629,88.5438838 121.124742,91.8986541 121.296166,98.4362533 L121.296166,99.0814079 L107.025198,99.0814079 C107.196622,103.296439 109.125112,105.532952 112.810725,105.791016 C115.724932,105.791016 117.567711,104.4147 118.339118,101.662026 Z M140.700274,95.4685422 L140.700274,107.468418 L138.000361,107.468418 L138.000361,95.855635 C137.914649,92.4147933 136.457568,90.6513884 133.629074,90.5653674 C130.286308,90.9954726 128.443529,92.8018873 128.100681,95.9846659 L128.100681,107.468418 L125.400768,107.597448 L125.400768,88.7589345 L128.100681,88.7589345 L128.100681,91.5976147 C129.557784,89.4470886 131.61484,88.3288319 134.27191,88.2428108 C138.557507,88.2428108 140.700274,90.6513639 140.700274,95.4685422 Z M173.465828,84.3718833 L166.008926,84.3718833 L166.008926,94.5653258 L173.465828,94.5653258 C177.580002,94.4793048 179.679913,92.7158999 179.765625,89.2750582 C179.594201,86.0922796 177.49429,84.4579044 173.465828,84.3718833 Z M173.980097,97.1459441 L166.008926,97.1459441 L166.008926,107.597448 L163.180446,107.597448 L163.180446,81.791265 L174.237232,81.791265 C179.465661,82.0493281 182.336968,84.5869108 182.85124,89.4040891 C182.765528,94.4793306 179.80851,97.0599231 173.980097,97.1459441 Z M186.955842,107.468418 L186.955842,81.791265 L189.655755,81.791265 L189.655755,107.468418 L186.955842,107.468418 Z M207.259921,100.242686 L207.259921,97.7910987 C206.917073,98.4792671 205.074294,98.9523757 201.731528,99.2104388 C198.30305,99.640544 196.631692,100.844821 196.717404,102.823305 C196.803116,104.715767 198.217342,105.661985 200.960124,105.661985 C204.817162,105.403922 206.917073,103.597507 207.259921,100.242686 Z M197.103106,94.5653258 L194.403193,93.7911403 C195.346025,89.9201934 198.131621,88.0707688 202.760066,88.2428108 C207.817071,88.1567898 210.259825,90.5653428 210.088401,95.4685422 L210.088401,103.081366 C210.002689,105.145871 210.345532,106.608207 211.116939,107.468418 L208.417027,107.468418 C207.817043,106.780249 207.517056,105.920052 207.517056,104.887799 C205.974241,106.952304 203.531487,107.984541 200.188721,107.984541 C196.245971,107.812499 194.14606,106.178124 193.888924,103.081366 C193.974636,99.4684826 196.245969,97.4470184 200.70299,97.0169132 C204.302892,96.6728291 206.488514,96.1997204 207.259921,95.5975731 C207.517057,92.1567315 205.974265,90.5223562 202.631499,90.6943983 C199.374445,90.5223562 197.531666,91.8126525 197.103106,94.5653258 Z M222.035607,105.920047 L222.549876,107.339387 C221.692757,107.683471 220.74994,107.85551 219.721396,107.85551 C217.064326,107.941531 215.778666,106.565215 215.864378,103.726521 L215.864378,91.081491 L213.293032,91.081491 L213.293032,88.7589345 L215.864378,88.7589345 L215.864378,83.7267287 L218.564291,82.3073886 L218.564291,88.7589345 L222.035607,88.7589345 L222.035607,91.081491 L218.564291,91.081491 L218.564291,103.726521 C218.478579,105.360921 219.164264,106.135099 220.621367,106.049077 C221.135639,106.049077 221.607048,106.006068 222.035607,105.920047 Z M228.96869,86.3073471 L228.840122,88.7589345 L232.697141,88.7589345 L232.697141,91.081491 L228.840122,91.081491 L228.840122,107.468418 L226.140209,107.468418 L226.140209,91.081491 L223.183162,91.081491 L223.183162,88.7589345 L226.140209,88.7589345 L226.140209,86.436378 C226.054498,82.9955363 227.511579,81.3181512 230.511497,81.4041722 C231.797176,81.4041722 233.039981,81.6192216 234.239948,82.0493268 L233.725679,84.1138215 C232.954271,83.8557584 232.14002,83.7267287 231.282901,83.7267287 C229.654374,83.6407077 228.882978,84.5009052 228.96869,86.3073471 Z M243.615809,90.5653674 C239.673059,90.6513884 237.658858,93.2749908 237.573146,98.4362533 C237.658858,103.253432 239.673059,105.748004 243.615809,105.920047 C247.301422,105.748004 249.187057,103.210422 249.272769,98.3072224 C249.015633,93.4900441 247.129998,90.9094515 243.615809,90.5653674 Z M243.487241,107.984541 C237.915965,107.640457 235.001802,104.500736 234.744666,98.5652842 C234.91609,91.941664 237.915963,88.5438838 243.744376,88.3718418 C249.144228,88.6299049 251.97268,91.8986554 252.229816,98.1781915 C252.144104,104.62977 249.229942,107.89852 243.487241,107.984541 Z M265.462695,91.8556765 C264.691288,91.3395503 263.919892,91.081491 263.148484,91.081491 C262.119941,91.081491 261.134268,91.6836293 260.191437,92.8879239 C259.420029,93.8341553 259.034331,95.339501 259.034331,97.404006 L259.034331,107.597448 L256.334418,107.597448 L256.334418,88.7589345 L259.034331,88.7589345 L259.034331,92.1137384 L259.162898,92.1137384 C260.020018,89.7051492 261.477099,88.4578628 263.534186,88.3718418 C264.562729,88.2858207 265.591257,88.5868898 266.619801,89.2750582 L265.462695,91.8556765 Z M294.509349,95.2104804 L294.509349,107.468418 L291.809436,107.468418 L291.809436,95.855635 C291.895148,92.2427512 290.609488,90.4793463 287.952418,90.5653674 C285.038212,90.8234305 283.452565,92.6298453 283.195429,95.9846659 L283.195429,107.468418 L280.495516,107.468418 L280.495516,95.855635 C280.581228,92.2427512 279.338423,90.4793463 276.767065,90.5653674 C273.852859,90.8234305 272.224356,92.5438255 271.881508,95.7266041 L271.881508,107.468418 L269.181595,107.468418 L269.181595,88.7589345 L271.881508,88.7589345 L271.881508,91.5976147 C273.252899,89.3610676 274.967113,88.2428108 277.024199,88.2428108 C280.195541,88.2428108 282.124031,89.576117 282.809727,92.2427693 C284.181118,89.576117 286.023897,88.2428108 288.33812,88.2428108 C292.538005,88.1567898 294.595061,90.4793231 294.509349,95.2104804 Z" id="AI-Open-Platform"></path>
                </g>
            </g>
        </g>
    </g>
</svg>